%TF.GenerationSoftware,KiCad,Pcbnew,10.0.1*%
%TF.CreationDate,2026-04-23T19:48:55+05:30*%
%TF.ProjectId,FC,46432e6b-6963-4616-945f-706362585858,rev?*%
%TF.SameCoordinates,Original*%
%TF.FileFunction,Copper,L1,Top*%
%TF.FilePolarity,Positive*%
%FSLAX46Y46*%
G04 Gerber Fmt 4.6, Leading zero omitted, Abs format (unit mm)*
G04 Created by KiCad (PCBNEW 10.0.1) date 2026-04-23 19:48:55*
%MOMM*%
%LPD*%
G01*
G04 APERTURE LIST*
G04 Aperture macros list*
%AMRoundRect*
0 Rectangle with rounded corners*
0 $1 Rounding radius*
0 $2 $3 $4 $5 $6 $7 $8 $9 X,Y pos of 4 corners*
0 Add a 4 corners polygon primitive as box body*
4,1,4,$2,$3,$4,$5,$6,$7,$8,$9,$2,$3,0*
0 Add four circle primitives for the rounded corners*
1,1,$1+$1,$2,$3*
1,1,$1+$1,$4,$5*
1,1,$1+$1,$6,$7*
1,1,$1+$1,$8,$9*
0 Add four rect primitives between the rounded corners*
20,1,$1+$1,$2,$3,$4,$5,0*
20,1,$1+$1,$4,$5,$6,$7,0*
20,1,$1+$1,$6,$7,$8,$9,0*
20,1,$1+$1,$8,$9,$2,$3,0*%
G04 Aperture macros list end*
%TA.AperFunction,SMDPad,CuDef*%
%ADD10RoundRect,0.250000X-0.337500X-0.475000X0.337500X-0.475000X0.337500X0.475000X-0.337500X0.475000X0*%
%TD*%
%TA.AperFunction,SMDPad,CuDef*%
%ADD11RoundRect,0.250000X-0.412500X-1.100000X0.412500X-1.100000X0.412500X1.100000X-0.412500X1.100000X0*%
%TD*%
%TA.AperFunction,ComponentPad*%
%ADD12C,1.700000*%
%TD*%
%TA.AperFunction,ComponentPad*%
%ADD13R,1.700000X1.700000*%
%TD*%
%TA.AperFunction,SMDPad,CuDef*%
%ADD14RoundRect,0.250000X-0.350000X-0.450000X0.350000X-0.450000X0.350000X0.450000X-0.350000X0.450000X0*%
%TD*%
%TA.AperFunction,SMDPad,CuDef*%
%ADD15RoundRect,0.375000X-0.625000X-0.375000X0.625000X-0.375000X0.625000X0.375000X-0.625000X0.375000X0*%
%TD*%
%TA.AperFunction,SMDPad,CuDef*%
%ADD16RoundRect,0.500000X-0.500000X-1.400000X0.500000X-1.400000X0.500000X1.400000X-0.500000X1.400000X0*%
%TD*%
%TA.AperFunction,SMDPad,CuDef*%
%ADD17RoundRect,0.075000X0.075000X-0.350000X0.075000X0.350000X-0.075000X0.350000X-0.075000X-0.350000X0*%
%TD*%
%TA.AperFunction,SMDPad,CuDef*%
%ADD18RoundRect,0.075000X-0.350000X-0.075000X0.350000X-0.075000X0.350000X0.075000X-0.350000X0.075000X0*%
%TD*%
%TA.AperFunction,SMDPad,CuDef*%
%ADD19RoundRect,0.500000X-0.875000X-0.500000X0.875000X-0.500000X0.875000X0.500000X-0.875000X0.500000X0*%
%TD*%
%TA.AperFunction,ViaPad*%
%ADD20C,0.600000*%
%TD*%
%TA.AperFunction,Conductor*%
%ADD21C,0.200000*%
%TD*%
G04 APERTURE END LIST*
D10*
%TO.P,C1,2*%
%TO.N,Net-(J1-Pin_1)*%
X155612500Y-74505000D03*
%TO.P,C1,1*%
%TO.N,Net-(J2-Pin_1)*%
X153537500Y-74505000D03*
%TD*%
D11*
%TO.P,C2,2*%
%TO.N,Net-(J1-Pin_1)*%
X163087500Y-105635000D03*
%TO.P,C2,1*%
%TO.N,Net-(J2-Pin_1)*%
X159962500Y-105635000D03*
%TD*%
D10*
%TO.P,C3,2*%
%TO.N,Net-(J2-Pin_1)*%
X155612500Y-77515000D03*
%TO.P,C3,1*%
%TO.N,Net-(J1-Pin_1)*%
X153537500Y-77515000D03*
%TD*%
%TO.P,C4,2*%
%TO.N,Net-(J3-Pin_2)*%
X155612500Y-80525000D03*
%TO.P,C4,1*%
%TO.N,Net-(J1-Pin_1)*%
X153537500Y-80525000D03*
%TD*%
%TO.P,C5,2*%
%TO.N,Net-(J3-Pin_2)*%
X155612500Y-83535000D03*
%TO.P,C5,1*%
%TO.N,Net-(J1-Pin_1)*%
X153537500Y-83535000D03*
%TD*%
%TO.P,C6,2*%
%TO.N,Net-(J2-Pin_1)*%
X155612500Y-86545000D03*
%TO.P,C6,1*%
%TO.N,Net-(J1-Pin_1)*%
X153537500Y-86545000D03*
%TD*%
D12*
%TO.P,J1,8,Pin_8_8*%
%TO.N,unconnected-(J1-Pin_8-Pad8)*%
X159275000Y-82915000D03*
%TO.P,J1,7,Pin_7_7*%
%TO.N,Net-(J1-Pin_7)*%
X161815000Y-82915000D03*
%TO.P,J1,6,Pin_6_6*%
%TO.N,Net-(J1-Pin_6)*%
X159275000Y-80375000D03*
%TO.P,J1,5,Pin_5_5*%
%TO.N,Net-(J1-Pin_5)*%
X161815000Y-80375000D03*
%TO.P,J1,4,Pin_4_4*%
%TO.N,Net-(J1-Pin_4)*%
X159275000Y-77835000D03*
%TO.P,J1,3,Pin_3_3*%
%TO.N,Net-(J1-Pin_3)*%
X161815000Y-77835000D03*
%TO.P,J1,2,Pin_2_2*%
%TO.N,Net-(J1-Pin_1)*%
X159275000Y-75295000D03*
D13*
%TO.P,J1,1,Pin_1_1*%
X161815000Y-75295000D03*
%TD*%
D12*
%TO.P,J2,2,Pin_2_2*%
%TO.N,Net-(J1-Pin_1)*%
X160815000Y-101205000D03*
D13*
%TO.P,J2,1,Pin_1_1*%
%TO.N,Net-(J2-Pin_1)*%
X160815000Y-98665000D03*
%TD*%
D12*
%TO.P,J3,3,Pin_3_3*%
%TO.N,Net-(J1-Pin_1)*%
X133295000Y-104345000D03*
%TO.P,J3,2,Pin_2_2*%
%TO.N,Net-(J3-Pin_2)*%
X133295000Y-101805000D03*
D13*
%TO.P,J3,1,Pin_1_1*%
%TO.N,Net-(J3-Pin_1)*%
X133295000Y-99265000D03*
%TD*%
D12*
%TO.P,J4,3,Pin_3_3*%
%TO.N,Net-(J1-Pin_1)*%
X137885000Y-104345000D03*
%TO.P,J4,2,Pin_2_2*%
%TO.N,Net-(J3-Pin_2)*%
X137885000Y-101805000D03*
D13*
%TO.P,J4,1,Pin_1_1*%
%TO.N,Net-(J4-Pin_1)*%
X137885000Y-99265000D03*
%TD*%
D12*
%TO.P,J5,3,Pin_3_3*%
%TO.N,Net-(J1-Pin_1)*%
X142475000Y-104345000D03*
%TO.P,J5,2,Pin_2_2*%
%TO.N,Net-(J3-Pin_2)*%
X142475000Y-101805000D03*
D13*
%TO.P,J5,1,Pin_1_1*%
%TO.N,Net-(J5-Pin_1)*%
X142475000Y-99265000D03*
%TD*%
D12*
%TO.P,J6,3,Pin_3_3*%
%TO.N,Net-(J1-Pin_1)*%
X147065000Y-104345000D03*
%TO.P,J6,2,Pin_2_2*%
%TO.N,Net-(J3-Pin_2)*%
X147065000Y-101805000D03*
D13*
%TO.P,J6,1,Pin_1_1*%
%TO.N,Net-(J6-Pin_1)*%
X147065000Y-99265000D03*
%TD*%
D14*
%TO.P,R1,2*%
%TO.N,Net-(U2-SDA)*%
X155545000Y-104195000D03*
%TO.P,R1,1*%
%TO.N,Net-(U2-VDD)*%
X153545000Y-104195000D03*
%TD*%
%TO.P,R2,2*%
%TO.N,Net-(U2-SCL)*%
X155545000Y-107145000D03*
%TO.P,R2,1*%
%TO.N,Net-(U2-VDD)*%
X153545000Y-107145000D03*
%TD*%
D15*
%TO.P,U1,3,VI_3*%
%TO.N,Net-(J2-Pin_1)*%
X153945000Y-94550000D03*
D16*
%TO.P,U1,2,VO_2*%
%TO.N,Net-(J1-Pin_1)*%
X160245000Y-92250000D03*
D15*
X153945000Y-92250000D03*
%TO.P,U1,1,GND_1*%
X153945000Y-89950000D03*
%TD*%
D17*
%TO.P,U2,24,SDA_24*%
%TO.N,Net-(U2-SDA)*%
X154095000Y-97595000D03*
%TO.P,U2,23,SCL_23*%
%TO.N,Net-(U2-SCL)*%
X154595000Y-97595000D03*
%TO.P,U2,22,RESV_22*%
%TO.N,unconnected-(U2-RESV-Pad22)*%
X155095000Y-97595000D03*
%TO.P,U2,21,RESV_21*%
%TO.N,unconnected-(U2-RESV-Pad21)*%
X155595000Y-97595000D03*
%TO.P,U2,20,CPOUT_20*%
%TO.N,Net-(J1-Pin_1)*%
X156095000Y-97595000D03*
%TO.P,U2,19,RESV_19*%
%TO.N,unconnected-(U2-RESV-Pad19)*%
X156595000Y-97595000D03*
D18*
%TO.P,U2,18,GND_18*%
%TO.N,Net-(J1-Pin_1)*%
X157295000Y-98295000D03*
%TO.P,U2,17,NC_17*%
%TO.N,unconnected-(U2-NC-Pad17)*%
X157295000Y-98795000D03*
%TO.P,U2,16,NC_16*%
%TO.N,unconnected-(U2-NC-Pad16)*%
X157295000Y-99295000D03*
%TO.P,U2,15,NC_15*%
%TO.N,unconnected-(U2-NC-Pad15)*%
X157295000Y-99795000D03*
%TO.P,U2,14,NC_14*%
%TO.N,unconnected-(U2-NC-Pad14)*%
X157295000Y-100295000D03*
%TO.P,U2,13,VDD_13*%
%TO.N,Net-(U2-VDD)*%
X157295000Y-100795000D03*
D17*
%TO.P,U2,12,INT_12*%
%TO.N,unconnected-(U2-INT-Pad12)*%
X156595000Y-101495000D03*
%TO.P,U2,11,FSYNC_11*%
%TO.N,unconnected-(U2-FSYNC-Pad11)*%
X156095000Y-101495000D03*
%TO.P,U2,10,REGOUT_10*%
%TO.N,Net-(J1-Pin_1)*%
X155595000Y-101495000D03*
%TO.P,U2,9,AD0_9*%
X155095000Y-101495000D03*
%TO.P,U2,8,VLOGIC_8*%
%TO.N,Net-(U2-VDD)*%
X154595000Y-101495000D03*
%TO.P,U2,7,AUX_CL_7*%
%TO.N,unconnected-(U2-AUX_CL-Pad7)*%
X154095000Y-101495000D03*
D18*
%TO.P,U2,6,AUX_DA_6*%
%TO.N,unconnected-(U2-AUX_DA-Pad6)*%
X153395000Y-100795000D03*
%TO.P,U2,5,NC_5*%
%TO.N,unconnected-(U2-NC-Pad5)*%
X153395000Y-100295000D03*
%TO.P,U2,4,NC_4*%
%TO.N,unconnected-(U2-NC-Pad4)*%
X153395000Y-99795000D03*
%TO.P,U2,3,NC_3*%
%TO.N,unconnected-(U2-NC-Pad3)*%
X153395000Y-99295000D03*
%TO.P,U2,2,NC_2*%
%TO.N,unconnected-(U2-NC-Pad2)*%
X153395000Y-98795000D03*
%TO.P,U2,1,CLKIN_1*%
%TO.N,unconnected-(U2-CLKIN-Pad1)*%
X153395000Y-98295000D03*
%TD*%
D19*
%TO.P,U3,14,5V_14*%
%TO.N,Net-(J2-Pin_1)*%
X150029000Y-78079000D03*
%TO.P,U3,13,GND_13*%
%TO.N,Net-(J1-Pin_1)*%
X150029000Y-80619000D03*
%TO.P,U3,12,3V3_12*%
%TO.N,Net-(U2-VDD)*%
X150029000Y-83159000D03*
%TO.P,U3,11,P1.15_D10_MOSI_11*%
%TO.N,Net-(J1-Pin_6)*%
X150029000Y-85699000D03*
%TO.P,U3,10,P1.14_D9_MISO_10*%
%TO.N,Net-(J1-Pin_7)*%
X150029000Y-88239000D03*
%TO.P,U3,9,P1.13_D8_SCK_9*%
%TO.N,Net-(J1-Pin_5)*%
X150029000Y-90779000D03*
%TO.P,U3,8,P1.12_D7_RX_8*%
%TO.N,Net-(J1-Pin_4)*%
X150029000Y-93319000D03*
%TO.P,U3,1,P0.02_A0_D0_1*%
%TO.N,Net-(J6-Pin_1)*%
X133829000Y-78079000D03*
%TO.P,U3,2,P0.03_A1_D1_2*%
%TO.N,Net-(J5-Pin_1)*%
X133829000Y-80619000D03*
%TO.P,U3,3,P0.28_A2_D2_3*%
%TO.N,Net-(J3-Pin_1)*%
X133829000Y-83159000D03*
%TO.P,U3,4,P0.29_A3_D3_4*%
%TO.N,Net-(J4-Pin_1)*%
X133829000Y-85699000D03*
%TO.P,U3,5,P0.04_A4_D4_SDA_5*%
%TO.N,Net-(U2-SDA)*%
X133829000Y-88239000D03*
%TO.P,U3,6,P0.05_A5_D5_SCL_6*%
%TO.N,Net-(U2-SCL)*%
X133829000Y-90779000D03*
%TO.P,U3,7,P1.11_D6_TX_7*%
%TO.N,Net-(J1-Pin_3)*%
X133829000Y-93319000D03*
%TD*%
D20*
%TO.N,Net-(J3-Pin_2)*%
X157500000Y-86500000D03*
%TO.N,Net-(U2-VDD)*%
X152000000Y-104595000D03*
%TO.N,Net-(J1-Pin_1)*%
X155671765Y-93671765D03*
%TO.N,Net-(U2-VDD)*%
X152000000Y-106000000D03*
%TO.N,Net-(J1-Pin_1)*%
X156125089Y-75776559D03*
X157420000Y-102000000D03*
X153333972Y-76085000D03*
%TO.N,Net-(U2-VDD)*%
X153545000Y-104195000D03*
%TO.N,Net-(J1-Pin_1)*%
X158500000Y-98500000D03*
%TO.N,Net-(U2-VDD)*%
X149500000Y-101015000D03*
%TO.N,Net-(J1-Pin_7)*%
X163687500Y-83500000D03*
%TO.N,Net-(U2-VDD)*%
X154599265Y-102400735D03*
X158500000Y-102000000D03*
%TO.N,Net-(J1-Pin_5)*%
X164287500Y-81000000D03*
%TO.N,Net-(U2-VDD)*%
X149825735Y-99815000D03*
%TO.N,Net-(J1-Pin_3)*%
X135735000Y-95000000D03*
%TO.N,Net-(J1-Pin_1)*%
X154423235Y-93223235D03*
%TO.N,Net-(J1-Pin_4)*%
X157000000Y-76000000D03*
X157000000Y-72080000D03*
%TD*%
%TO.N,Net-(J3-Pin_2)*%
D21*
X155612500Y-83535000D02*
X155612500Y-80525000D01*
X157500000Y-86500000D02*
X155612500Y-84612500D01*
X155612500Y-84612500D02*
X155612500Y-83535000D01*
%TO.N,Net-(J1-Pin_1)*%
X159275000Y-75295000D02*
X156402500Y-75295000D01*
X156402500Y-75295000D02*
X155612500Y-74505000D01*
%TO.N,Net-(U2-SCL)*%
X158043785Y-103304744D02*
X159100000Y-102248529D01*
X159100000Y-102248529D02*
X159100000Y-98251471D01*
X157318529Y-96470000D02*
X155262590Y-96470000D01*
X158020000Y-103304744D02*
X158043785Y-103304744D01*
X159100000Y-98251471D02*
X157318529Y-96470000D01*
X155262590Y-96470000D02*
X154595000Y-97137590D01*
X154595000Y-97137590D02*
X154595000Y-97595000D01*
%TO.N,Net-(J1-Pin_1)*%
X156095000Y-97595000D02*
X156045000Y-97545000D01*
%TO.N,Net-(J6-Pin_1)*%
X133829000Y-78079000D02*
X147065000Y-91315000D01*
%TO.N,Net-(U2-SDA)*%
X150085000Y-100415000D02*
X151500000Y-99000000D01*
X136735000Y-91145000D02*
X136735000Y-100415000D01*
%TO.N,Net-(J5-Pin_1)*%
X142475000Y-89265000D02*
X142475000Y-99265000D01*
%TO.N,Net-(J6-Pin_1)*%
X147065000Y-91315000D02*
X147065000Y-99265000D01*
%TO.N,Net-(J2-Pin_1)*%
X156700000Y-94550000D02*
X160815000Y-98665000D01*
%TO.N,Net-(U2-SCL)*%
X133829000Y-90779000D02*
X136335000Y-93285000D01*
%TO.N,Net-(J1-Pin_3)*%
X133829000Y-93319000D02*
X133319000Y-93319000D01*
%TO.N,Net-(J2-Pin_1)*%
X159665000Y-105337500D02*
X159962500Y-105635000D01*
X154725000Y-85657500D02*
X155612500Y-86545000D01*
X159665000Y-99815000D02*
X159665000Y-105337500D01*
%TO.N,Net-(U2-SDA)*%
X151500000Y-99000000D02*
X151500000Y-100150000D01*
%TO.N,Net-(U2-SCL)*%
X147541346Y-102955000D02*
X149781346Y-105195000D01*
X137408654Y-102955000D02*
X147541346Y-102955000D01*
X155545000Y-105779744D02*
X155545000Y-107145000D01*
X158020000Y-103304744D02*
X155545000Y-105779744D01*
%TO.N,Net-(J1-Pin_3)*%
X133319000Y-93319000D02*
X133000000Y-93000000D01*
%TO.N,Net-(J2-Pin_1)*%
X153537500Y-74505000D02*
X153537500Y-75440000D01*
X160815000Y-98665000D02*
X159665000Y-99815000D01*
X153537500Y-74570500D02*
X153537500Y-74505000D01*
X150029000Y-78079000D02*
X153537500Y-74570500D01*
X155612500Y-77515000D02*
X154725000Y-78402500D01*
X153945000Y-94550000D02*
X156700000Y-94550000D01*
X155612500Y-92882500D02*
X153945000Y-94550000D01*
X155612500Y-86545000D02*
X155612500Y-92882500D01*
X154725000Y-78402500D02*
X154725000Y-85657500D01*
X153537500Y-75440000D02*
X155612500Y-77515000D01*
%TO.N,Net-(U2-SCL)*%
X156129744Y-105195000D02*
X158020000Y-103304744D01*
X136335000Y-101881346D02*
X137408654Y-102955000D01*
X136335000Y-93285000D02*
X136335000Y-101881346D01*
%TO.N,Net-(U2-SDA)*%
X133829000Y-88239000D02*
X136735000Y-91145000D01*
%TO.N,Net-(J4-Pin_1)*%
X133829000Y-85699000D02*
X137885000Y-89755000D01*
%TO.N,Net-(J3-Pin_1)*%
X133829000Y-83159000D02*
X132154000Y-84834000D01*
%TO.N,Net-(U2-SDA)*%
X136735000Y-100415000D02*
X150085000Y-100415000D01*
%TO.N,Net-(J3-Pin_1)*%
X132154000Y-98124000D02*
X133295000Y-99265000D01*
%TO.N,Net-(J5-Pin_1)*%
X133829000Y-80619000D02*
X142475000Y-89265000D01*
%TO.N,Net-(U2-SDA)*%
X151500000Y-100150000D02*
X155545000Y-104195000D01*
X151500000Y-99000000D02*
X152905000Y-97595000D01*
%TO.N,Net-(U2-SCL)*%
X149781346Y-105195000D02*
X156129744Y-105195000D01*
%TO.N,Net-(U2-SDA)*%
X152905000Y-97595000D02*
X154095000Y-97595000D01*
%TO.N,Net-(J4-Pin_1)*%
X137885000Y-89755000D02*
X137885000Y-99265000D01*
%TO.N,Net-(J3-Pin_1)*%
X132154000Y-84834000D02*
X132154000Y-98124000D01*
%TO.N,Net-(J1-Pin_1)*%
X157295000Y-97337590D02*
X156827410Y-96870000D01*
X158500000Y-98500000D02*
X158295000Y-98295000D01*
X156827410Y-96870000D02*
X156362590Y-96870000D01*
X158295000Y-98295000D02*
X157295000Y-98295000D01*
X163087500Y-103477500D02*
X160815000Y-101205000D01*
X157420000Y-102000000D02*
X157200000Y-102220000D01*
X163087500Y-105635000D02*
X163087500Y-103477500D01*
X157200000Y-102220000D02*
X155862590Y-102220000D01*
X155862590Y-102220000D02*
X155595000Y-101952410D01*
X155595000Y-101952410D02*
X155595000Y-101495000D01*
X155595000Y-101495000D02*
X155095000Y-101495000D01*
X156095000Y-97137590D02*
X156095000Y-97595000D01*
X157295000Y-98295000D02*
X157295000Y-97337590D01*
X156362590Y-96870000D02*
X156095000Y-97137590D01*
%TO.N,Net-(U2-VDD)*%
X154595000Y-101495000D02*
X154595000Y-102396470D01*
X154595000Y-102396470D02*
X154599265Y-102400735D01*
X150029000Y-83159000D02*
X152217157Y-85347157D01*
X158500000Y-102000000D02*
X157295000Y-100795000D01*
X149500000Y-104000000D02*
X149695000Y-104195000D01*
X152000000Y-104195000D02*
X153545000Y-104195000D01*
X152217157Y-85347157D02*
X152217157Y-97423578D01*
X152217157Y-97423578D02*
X149825735Y-99815000D01*
%TO.N,Net-(J1-Pin_6)*%
X154409744Y-73480000D02*
X154725000Y-73795256D01*
%TO.N,Net-(U2-VDD)*%
X149500000Y-101015000D02*
X149500000Y-104000000D01*
%TO.N,Net-(J1-Pin_6)*%
X152114358Y-73480000D02*
X154409744Y-73480000D01*
X156184744Y-76490000D02*
X159275000Y-79580256D01*
X154725000Y-73795256D02*
X154725000Y-75225000D01*
X155990000Y-76490000D02*
X156184744Y-76490000D01*
%TO.N,Net-(J1-Pin_7)*%
X146600000Y-85665685D02*
X146600000Y-78428672D01*
%TO.N,Net-(J1-Pin_6)*%
X147000000Y-78594358D02*
X152114358Y-73480000D01*
X147000000Y-85500000D02*
X147000000Y-78594358D01*
X159275000Y-79580256D02*
X159275000Y-80375000D01*
X154725000Y-75225000D02*
X155990000Y-76490000D01*
X150029000Y-85699000D02*
X147199000Y-85699000D01*
X147199000Y-85699000D02*
X147000000Y-85500000D01*
%TO.N,Net-(J1-Pin_7)*%
X146600000Y-78428672D02*
X151948673Y-73080000D01*
X150029000Y-88239000D02*
X149173315Y-88239000D01*
X149173315Y-88239000D02*
X146600000Y-85665685D01*
X151948673Y-73080000D02*
X161900000Y-73080000D01*
X161900000Y-73080000D02*
X163687500Y-74867500D01*
X163687500Y-74867500D02*
X163687500Y-83500000D01*
%TO.N,Net-(J1-Pin_5)*%
X146200000Y-86950000D02*
X146200000Y-78262986D01*
X164287500Y-74901814D02*
X164287500Y-81000000D01*
X150029000Y-90779000D02*
X146200000Y-86950000D01*
X146200000Y-78262986D02*
X151782988Y-72680000D01*
X151782988Y-72680000D02*
X162065686Y-72680000D01*
X162065686Y-72680000D02*
X164287500Y-74901814D01*
%TO.N,Net-(J1-Pin_4)*%
X157440000Y-76000000D02*
X159275000Y-77835000D01*
X150029000Y-93319000D02*
X145800000Y-89090000D01*
X157000000Y-76000000D02*
X157440000Y-76000000D01*
X145800000Y-89090000D02*
X145800000Y-78097300D01*
%TO.N,Net-(J1-Pin_1)*%
X153537500Y-76288528D02*
X153333972Y-76085000D01*
X156212500Y-92000000D02*
X156212500Y-93131030D01*
X153945000Y-92745000D02*
X154423235Y-93223235D01*
X153945000Y-92250000D02*
X153945000Y-92745000D01*
%TO.N,Net-(U2-VDD)*%
X152000000Y-104195000D02*
X152000000Y-104595000D01*
%TO.N,Net-(J1-Pin_1)*%
X156125089Y-75776559D02*
X156125089Y-75017589D01*
X153537500Y-77515000D02*
X153537500Y-76288528D01*
X156212500Y-93131030D02*
X155671765Y-93671765D01*
X156125089Y-75017589D02*
X155612500Y-74505000D01*
%TO.N,Net-(U2-VDD)*%
X149695000Y-104195000D02*
X152000000Y-104195000D01*
X152000000Y-106000000D02*
X152400000Y-106000000D01*
X152400000Y-106000000D02*
X153545000Y-107145000D01*
%TO.N,Net-(J1-Pin_3)*%
X133829000Y-93319000D02*
X135510000Y-95000000D01*
%TO.N,Net-(J1-Pin_1)*%
X160425000Y-92070000D02*
X160425000Y-76685000D01*
X160425000Y-76685000D02*
X161815000Y-75295000D01*
X150865000Y-108145000D02*
X147065000Y-104345000D01*
X161815000Y-75295000D02*
X159275000Y-75295000D01*
X157250000Y-92250000D02*
X160245000Y-92250000D01*
X157000000Y-92000000D02*
X157250000Y-92250000D01*
X163087500Y-105635000D02*
X160577500Y-108145000D01*
X160577500Y-108145000D02*
X150865000Y-108145000D01*
X161815000Y-75295000D02*
X163087500Y-76567500D01*
X163087500Y-76567500D02*
X163087500Y-105635000D01*
X160245000Y-92250000D02*
X160425000Y-92070000D01*
X150029000Y-80619000D02*
X153443500Y-80619000D01*
X153443500Y-80619000D02*
X153537500Y-80525000D01*
X153537500Y-91842500D02*
X153945000Y-92250000D01*
X156212500Y-92000000D02*
X157000000Y-92000000D01*
X153537500Y-77515000D02*
X153537500Y-91842500D01*
%TO.N,Net-(J1-Pin_3)*%
X135510000Y-95000000D02*
X135735000Y-95000000D01*
%TO.N,Net-(J1-Pin_4)*%
X145800000Y-78097300D02*
X151817300Y-72080000D01*
X151817300Y-72080000D02*
X157000000Y-72080000D01*
%TD*%
M02*
