%TF.GenerationSoftware,KiCad,Pcbnew,10.0.1*%
%TF.CreationDate,2026-04-23T19:48:55+05:30*%
%TF.ProjectId,FC,46432e6b-6963-4616-945f-706362585858,rev?*%
%TF.SameCoordinates,Original*%
%TF.FileFunction,Legend,Bot*%
%TF.FilePolarity,Positive*%
%FSLAX46Y46*%
G04 Gerber Fmt 4.6, Leading zero omitted, Abs format (unit mm)*
G04 Created by KiCad (PCBNEW 10.0.1) date 2026-04-23 19:48:55*
%MOMM*%
%LPD*%
G01*
G04 APERTURE LIST*
%ADD10C,0.150000*%
G04 APERTURE END LIST*
D10*
G36*
X141569172Y-85259123D02*
G01*
X141569172Y-86537847D01*
X141397896Y-86623485D01*
X140976163Y-86623485D01*
X140774313Y-86522560D01*
X140677240Y-86425487D01*
X140576315Y-86223637D01*
X140576315Y-85573333D01*
X140677240Y-85371483D01*
X140774313Y-85274409D01*
X140976163Y-85173485D01*
X141397896Y-85173485D01*
X141569172Y-85259123D01*
G37*
G36*
X135199743Y-85274409D02*
G01*
X135296818Y-85371484D01*
X135397743Y-85573333D01*
X135397743Y-86223637D01*
X135296818Y-86425487D01*
X135199744Y-86522560D01*
X134997895Y-86623485D01*
X134576162Y-86623485D01*
X134404886Y-86537847D01*
X134404886Y-85259123D01*
X134576162Y-85173485D01*
X134997895Y-85173485D01*
X135199743Y-85274409D01*
G37*
G36*
X137359698Y-85268672D02*
G01*
X137454886Y-85459047D01*
X137454886Y-85806999D01*
X136462029Y-85608428D01*
X136462029Y-85459046D01*
X136557215Y-85268672D01*
X136747591Y-85173485D01*
X137169324Y-85173485D01*
X137359698Y-85268672D01*
G37*
G36*
X139416841Y-85268672D02*
G01*
X139512029Y-85459047D01*
X139512029Y-85806999D01*
X138519172Y-85608428D01*
X138519172Y-85459046D01*
X138614358Y-85268672D01*
X138804734Y-85173485D01*
X139226467Y-85173485D01*
X139416841Y-85268672D01*
G37*
G36*
X145599744Y-85274409D02*
G01*
X145696819Y-85371484D01*
X145797744Y-85573333D01*
X145797744Y-86223637D01*
X145696819Y-86425487D01*
X145599745Y-86522560D01*
X145397896Y-86623485D01*
X144976163Y-86623485D01*
X144804887Y-86537847D01*
X144804887Y-85259123D01*
X144976163Y-85173485D01*
X145397896Y-85173485D01*
X145599744Y-85274409D01*
G37*
G36*
X147771173Y-85274409D02*
G01*
X147868248Y-85371484D01*
X147969173Y-85573333D01*
X147969173Y-86223637D01*
X147868248Y-86425487D01*
X147771174Y-86522560D01*
X147569325Y-86623485D01*
X147261878Y-86623485D01*
X147060028Y-86522560D01*
X146962955Y-86425487D01*
X146862030Y-86223637D01*
X146862030Y-85573333D01*
X146962955Y-85371483D01*
X147060028Y-85274409D01*
X147261878Y-85173485D01*
X147569325Y-85173485D01*
X147771173Y-85274409D01*
G37*
G36*
X150785840Y-87838711D02*
G01*
X133988219Y-87838711D01*
X133988219Y-84298485D01*
X134254886Y-84298485D01*
X134254886Y-86698485D01*
X134256327Y-86713117D01*
X134267526Y-86740153D01*
X134288218Y-86760845D01*
X134315254Y-86772044D01*
X134344518Y-86772044D01*
X134371554Y-86760845D01*
X134392246Y-86740153D01*
X134403445Y-86713117D01*
X134404222Y-86705220D01*
X134524916Y-86765567D01*
X134538648Y-86770822D01*
X134541335Y-86771012D01*
X134543825Y-86772044D01*
X134558457Y-86773485D01*
X135015600Y-86773485D01*
X135030232Y-86772044D01*
X135032721Y-86771012D01*
X135035409Y-86770822D01*
X135049141Y-86765567D01*
X135277712Y-86651282D01*
X135284011Y-86647317D01*
X135285839Y-86646560D01*
X135287895Y-86644871D01*
X135290155Y-86643450D01*
X135291454Y-86641951D01*
X135297204Y-86637233D01*
X135411490Y-86522947D01*
X135416210Y-86517196D01*
X135417707Y-86515898D01*
X135419126Y-86513643D01*
X135420818Y-86511582D01*
X135421576Y-86509749D01*
X135425539Y-86503455D01*
X135539825Y-86274883D01*
X135545080Y-86261152D01*
X135545271Y-86258462D01*
X135546302Y-86255974D01*
X135547743Y-86241342D01*
X135547743Y-85555628D01*
X135546302Y-85540996D01*
X135545271Y-85538507D01*
X135545080Y-85535818D01*
X135539825Y-85522087D01*
X135499452Y-85441342D01*
X136312029Y-85441342D01*
X136312029Y-85669914D01*
X136313470Y-85684546D01*
X136316281Y-85691334D01*
X136317708Y-85698543D01*
X136321827Y-85704722D01*
X136324669Y-85711582D01*
X136329864Y-85716777D01*
X136333940Y-85722891D01*
X136340110Y-85727023D01*
X136345361Y-85732274D01*
X136352149Y-85735085D01*
X136358255Y-85739175D01*
X136372320Y-85743458D01*
X137454886Y-85959970D01*
X137454886Y-86337923D01*
X137359698Y-86528298D01*
X137169324Y-86623485D01*
X136747591Y-86623485D01*
X136534855Y-86517118D01*
X136521123Y-86511863D01*
X136491933Y-86509789D01*
X136464172Y-86519043D01*
X136442064Y-86538216D01*
X136428977Y-86564391D01*
X136426903Y-86593581D01*
X136436157Y-86621342D01*
X136455330Y-86643450D01*
X136467773Y-86651282D01*
X136696345Y-86765567D01*
X136710077Y-86770822D01*
X136712764Y-86771012D01*
X136715254Y-86772044D01*
X136729886Y-86773485D01*
X137187029Y-86773485D01*
X137201661Y-86772044D01*
X137204150Y-86771012D01*
X137206838Y-86770822D01*
X137220570Y-86765567D01*
X137449141Y-86651282D01*
X137451588Y-86649741D01*
X137452742Y-86649357D01*
X137454178Y-86648111D01*
X137461584Y-86643450D01*
X137467745Y-86636345D01*
X137474850Y-86630184D01*
X137479511Y-86622778D01*
X137480757Y-86621342D01*
X137481141Y-86620188D01*
X137482682Y-86617741D01*
X137596968Y-86389169D01*
X137602223Y-86375438D01*
X137602414Y-86372748D01*
X137603445Y-86370260D01*
X137604886Y-86355628D01*
X137604886Y-85441342D01*
X138369172Y-85441342D01*
X138369172Y-85669914D01*
X138370613Y-85684546D01*
X138373424Y-85691334D01*
X138374851Y-85698543D01*
X138378970Y-85704722D01*
X138381812Y-85711582D01*
X138387007Y-85716777D01*
X138391083Y-85722891D01*
X138397253Y-85727023D01*
X138402504Y-85732274D01*
X138409292Y-85735085D01*
X138415398Y-85739175D01*
X138429463Y-85743458D01*
X139512029Y-85959970D01*
X139512029Y-86337923D01*
X139416841Y-86528298D01*
X139226467Y-86623485D01*
X138804734Y-86623485D01*
X138591998Y-86517118D01*
X138578266Y-86511863D01*
X138549076Y-86509789D01*
X138521315Y-86519043D01*
X138499207Y-86538216D01*
X138486120Y-86564391D01*
X138484046Y-86593581D01*
X138493300Y-86621342D01*
X138512473Y-86643450D01*
X138524916Y-86651282D01*
X138753488Y-86765567D01*
X138767220Y-86770822D01*
X138769907Y-86771012D01*
X138772397Y-86772044D01*
X138787029Y-86773485D01*
X139244172Y-86773485D01*
X139258804Y-86772044D01*
X139261293Y-86771012D01*
X139263981Y-86770822D01*
X139277713Y-86765567D01*
X139506284Y-86651282D01*
X139508731Y-86649741D01*
X139509885Y-86649357D01*
X139511321Y-86648111D01*
X139518727Y-86643450D01*
X139524888Y-86636345D01*
X139531993Y-86630184D01*
X139536654Y-86622778D01*
X139537900Y-86621342D01*
X139538284Y-86620188D01*
X139539825Y-86617741D01*
X139654111Y-86389169D01*
X139659366Y-86375438D01*
X139659557Y-86372748D01*
X139660588Y-86370260D01*
X139662029Y-86355628D01*
X139662029Y-85555628D01*
X140426315Y-85555628D01*
X140426315Y-86241342D01*
X140427756Y-86255974D01*
X140428787Y-86258463D01*
X140428978Y-86261151D01*
X140434233Y-86274883D01*
X140548519Y-86503455D01*
X140552482Y-86509751D01*
X140553240Y-86511581D01*
X140554929Y-86513639D01*
X140556351Y-86515898D01*
X140557849Y-86517197D01*
X140562568Y-86522947D01*
X140676853Y-86637233D01*
X140682602Y-86641951D01*
X140683902Y-86643450D01*
X140686161Y-86644871D01*
X140688218Y-86646560D01*
X140690045Y-86647317D01*
X140696345Y-86651282D01*
X140924917Y-86765567D01*
X140938649Y-86770822D01*
X140941336Y-86771012D01*
X140943826Y-86772044D01*
X140958458Y-86773485D01*
X141415601Y-86773485D01*
X141430233Y-86772044D01*
X141432722Y-86771012D01*
X141435410Y-86770822D01*
X141449142Y-86765567D01*
X141569172Y-86705552D01*
X141569172Y-87498485D01*
X141570613Y-87513117D01*
X141581812Y-87540153D01*
X141602504Y-87560845D01*
X141629540Y-87572044D01*
X141658804Y-87572044D01*
X141685840Y-87560845D01*
X141706532Y-87540153D01*
X141717731Y-87513117D01*
X141719172Y-87498485D01*
X141719172Y-86241342D01*
X142597743Y-86241342D01*
X142597743Y-86355628D01*
X142599184Y-86370260D01*
X142600215Y-86372749D01*
X142600406Y-86375437D01*
X142605661Y-86389169D01*
X142719947Y-86617741D01*
X142721487Y-86620188D01*
X142721872Y-86621342D01*
X142723117Y-86622778D01*
X142727779Y-86630184D01*
X142734883Y-86636345D01*
X142741045Y-86643450D01*
X142748450Y-86648111D01*
X142749887Y-86649357D01*
X142751040Y-86649741D01*
X142753488Y-86651282D01*
X142982059Y-86765567D01*
X142995791Y-86770822D01*
X142998478Y-86771012D01*
X143000968Y-86772044D01*
X143015600Y-86773485D01*
X143472743Y-86773485D01*
X143487375Y-86772044D01*
X143489864Y-86771012D01*
X143492552Y-86770822D01*
X143506284Y-86765567D01*
X143734856Y-86651282D01*
X143747299Y-86643450D01*
X143766472Y-86621342D01*
X143775726Y-86593581D01*
X143773652Y-86564391D01*
X143760565Y-86538216D01*
X143738457Y-86519043D01*
X143710696Y-86509789D01*
X143681506Y-86511863D01*
X143667774Y-86517118D01*
X143455038Y-86623485D01*
X143033305Y-86623485D01*
X142842930Y-86528298D01*
X142747743Y-86337923D01*
X142747743Y-86259047D01*
X142842930Y-86068672D01*
X143033305Y-85973485D01*
X143358458Y-85973485D01*
X143373090Y-85972044D01*
X143375579Y-85971012D01*
X143378267Y-85970822D01*
X143391999Y-85965567D01*
X143620570Y-85851282D01*
X143623017Y-85849741D01*
X143624171Y-85849357D01*
X143625607Y-85848111D01*
X143633013Y-85843450D01*
X143639174Y-85836345D01*
X143646279Y-85830184D01*
X143650940Y-85822778D01*
X143652186Y-85821342D01*
X143652570Y-85820188D01*
X143654111Y-85817741D01*
X143768397Y-85589169D01*
X143773652Y-85575438D01*
X143773843Y-85572748D01*
X143774874Y-85570260D01*
X143776315Y-85555628D01*
X143776315Y-85441342D01*
X143774874Y-85426710D01*
X143773843Y-85424221D01*
X143773652Y-85421532D01*
X143768397Y-85407801D01*
X143654111Y-85179230D01*
X143652570Y-85176783D01*
X143652186Y-85175629D01*
X143650938Y-85174190D01*
X143646278Y-85166787D01*
X143639176Y-85160627D01*
X143633013Y-85153521D01*
X143625607Y-85148859D01*
X143624171Y-85147614D01*
X143623017Y-85147229D01*
X143620570Y-85145689D01*
X143391999Y-85031403D01*
X143378267Y-85026148D01*
X143375579Y-85025957D01*
X143373090Y-85024926D01*
X143358458Y-85023485D01*
X143015600Y-85023485D01*
X143000968Y-85024926D01*
X142998479Y-85025956D01*
X142995790Y-85026148D01*
X142982059Y-85031403D01*
X142753488Y-85145689D01*
X142741045Y-85153522D01*
X142721872Y-85175629D01*
X142712618Y-85203390D01*
X142714692Y-85232580D01*
X142727780Y-85258755D01*
X142749887Y-85277928D01*
X142777648Y-85287182D01*
X142806838Y-85285108D01*
X142820570Y-85279853D01*
X143033305Y-85173485D01*
X143340753Y-85173485D01*
X143531127Y-85268672D01*
X143626315Y-85459047D01*
X143626315Y-85537923D01*
X143531127Y-85728298D01*
X143340753Y-85823485D01*
X143015600Y-85823485D01*
X143000968Y-85824926D01*
X142998479Y-85825956D01*
X142995790Y-85826148D01*
X142982059Y-85831403D01*
X142753488Y-85945689D01*
X142751041Y-85947229D01*
X142749887Y-85947614D01*
X142748448Y-85948861D01*
X142741045Y-85953522D01*
X142734885Y-85960623D01*
X142727779Y-85966787D01*
X142723117Y-85974192D01*
X142721872Y-85975629D01*
X142721487Y-85976782D01*
X142719947Y-85979230D01*
X142605661Y-86207801D01*
X142600406Y-86221533D01*
X142600215Y-86224220D01*
X142599184Y-86226710D01*
X142597743Y-86241342D01*
X141719172Y-86241342D01*
X141719172Y-85098485D01*
X141717731Y-85083853D01*
X141706532Y-85056817D01*
X141685840Y-85036125D01*
X141658804Y-85024926D01*
X141629540Y-85024926D01*
X141602504Y-85036125D01*
X141581812Y-85056817D01*
X141570613Y-85083853D01*
X141569835Y-85091749D01*
X141449142Y-85031403D01*
X141435410Y-85026148D01*
X141432722Y-85025957D01*
X141430233Y-85024926D01*
X141415601Y-85023485D01*
X140958458Y-85023485D01*
X140943826Y-85024926D01*
X140941337Y-85025956D01*
X140938648Y-85026148D01*
X140924917Y-85031403D01*
X140696345Y-85145689D01*
X140690045Y-85149653D01*
X140688218Y-85150411D01*
X140686161Y-85152099D01*
X140683902Y-85153521D01*
X140682602Y-85155019D01*
X140676853Y-85159738D01*
X140562568Y-85274024D01*
X140557849Y-85279773D01*
X140556351Y-85281073D01*
X140554929Y-85283331D01*
X140553240Y-85285390D01*
X140552482Y-85287219D01*
X140548519Y-85293516D01*
X140434233Y-85522087D01*
X140428978Y-85535819D01*
X140428787Y-85538506D01*
X140427756Y-85540996D01*
X140426315Y-85555628D01*
X139662029Y-85555628D01*
X139662029Y-85441342D01*
X139660588Y-85426710D01*
X139659557Y-85424221D01*
X139659366Y-85421532D01*
X139654111Y-85407801D01*
X139539825Y-85179230D01*
X139538284Y-85176783D01*
X139537900Y-85175629D01*
X139536652Y-85174190D01*
X139531992Y-85166787D01*
X139524890Y-85160627D01*
X139518727Y-85153521D01*
X139511321Y-85148859D01*
X139509885Y-85147614D01*
X139508731Y-85147229D01*
X139506284Y-85145689D01*
X139277713Y-85031403D01*
X139263981Y-85026148D01*
X139261293Y-85025957D01*
X139258804Y-85024926D01*
X139244172Y-85023485D01*
X138787029Y-85023485D01*
X138772397Y-85024926D01*
X138769908Y-85025956D01*
X138767219Y-85026148D01*
X138753488Y-85031403D01*
X138524916Y-85145689D01*
X138522468Y-85147229D01*
X138521315Y-85147614D01*
X138519878Y-85148859D01*
X138512473Y-85153521D01*
X138506311Y-85160625D01*
X138499207Y-85166787D01*
X138494545Y-85174192D01*
X138493300Y-85175629D01*
X138492915Y-85176782D01*
X138491375Y-85179230D01*
X138377090Y-85407801D01*
X138371835Y-85421533D01*
X138371644Y-85424220D01*
X138370613Y-85426710D01*
X138369172Y-85441342D01*
X137604886Y-85441342D01*
X137603445Y-85426710D01*
X137602414Y-85424221D01*
X137602223Y-85421532D01*
X137596968Y-85407801D01*
X137482682Y-85179230D01*
X137481141Y-85176783D01*
X137480757Y-85175629D01*
X137479509Y-85174190D01*
X137474849Y-85166787D01*
X137467747Y-85160627D01*
X137461584Y-85153521D01*
X137454178Y-85148859D01*
X137452742Y-85147614D01*
X137451588Y-85147229D01*
X137449141Y-85145689D01*
X137220570Y-85031403D01*
X137206838Y-85026148D01*
X137204150Y-85025957D01*
X137201661Y-85024926D01*
X137187029Y-85023485D01*
X136729886Y-85023485D01*
X136715254Y-85024926D01*
X136712765Y-85025956D01*
X136710076Y-85026148D01*
X136696345Y-85031403D01*
X136467773Y-85145689D01*
X136465325Y-85147229D01*
X136464172Y-85147614D01*
X136462735Y-85148859D01*
X136455330Y-85153521D01*
X136449168Y-85160625D01*
X136442064Y-85166787D01*
X136437402Y-85174192D01*
X136436157Y-85175629D01*
X136435772Y-85176782D01*
X136434232Y-85179230D01*
X136319947Y-85407801D01*
X136314692Y-85421533D01*
X136314501Y-85424220D01*
X136313470Y-85426710D01*
X136312029Y-85441342D01*
X135499452Y-85441342D01*
X135425539Y-85293516D01*
X135421577Y-85287223D01*
X135420818Y-85285389D01*
X135419122Y-85283323D01*
X135417706Y-85281073D01*
X135416212Y-85279777D01*
X135411490Y-85274024D01*
X135297204Y-85159738D01*
X135291454Y-85155019D01*
X135290155Y-85153521D01*
X135287895Y-85152099D01*
X135285839Y-85150411D01*
X135284011Y-85149653D01*
X135277712Y-85145689D01*
X135049141Y-85031403D01*
X135035409Y-85026148D01*
X135032721Y-85025957D01*
X135030232Y-85024926D01*
X135015600Y-85023485D01*
X134558457Y-85023485D01*
X134543825Y-85024926D01*
X134541336Y-85025956D01*
X134538647Y-85026148D01*
X134524916Y-85031403D01*
X134404886Y-85091418D01*
X134404886Y-84298485D01*
X144654887Y-84298485D01*
X144654887Y-86698485D01*
X144656328Y-86713117D01*
X144667527Y-86740153D01*
X144688219Y-86760845D01*
X144715255Y-86772044D01*
X144744519Y-86772044D01*
X144771555Y-86760845D01*
X144792247Y-86740153D01*
X144803446Y-86713117D01*
X144804223Y-86705220D01*
X144924917Y-86765567D01*
X144938649Y-86770822D01*
X144941336Y-86771012D01*
X144943826Y-86772044D01*
X144958458Y-86773485D01*
X145415601Y-86773485D01*
X145430233Y-86772044D01*
X145432722Y-86771012D01*
X145435410Y-86770822D01*
X145449142Y-86765567D01*
X145677713Y-86651282D01*
X145684012Y-86647317D01*
X145685840Y-86646560D01*
X145687896Y-86644871D01*
X145690156Y-86643450D01*
X145691455Y-86641951D01*
X145697205Y-86637233D01*
X145811491Y-86522947D01*
X145816211Y-86517196D01*
X145817708Y-86515898D01*
X145819127Y-86513643D01*
X145820819Y-86511582D01*
X145821577Y-86509749D01*
X145825540Y-86503455D01*
X145939826Y-86274883D01*
X145945081Y-86261152D01*
X145945272Y-86258462D01*
X145946303Y-86255974D01*
X145947744Y-86241342D01*
X145947744Y-85555628D01*
X146712030Y-85555628D01*
X146712030Y-86241342D01*
X146713471Y-86255974D01*
X146714502Y-86258463D01*
X146714693Y-86261151D01*
X146719948Y-86274883D01*
X146834234Y-86503455D01*
X146838197Y-86509751D01*
X146838955Y-86511581D01*
X146840644Y-86513639D01*
X146842066Y-86515898D01*
X146843564Y-86517197D01*
X146848283Y-86522947D01*
X146962568Y-86637233D01*
X146968317Y-86641951D01*
X146969617Y-86643450D01*
X146971876Y-86644871D01*
X146973933Y-86646560D01*
X146975760Y-86647317D01*
X146982060Y-86651282D01*
X147210632Y-86765567D01*
X147224364Y-86770822D01*
X147227051Y-86771012D01*
X147229541Y-86772044D01*
X147244173Y-86773485D01*
X147587030Y-86773485D01*
X147601662Y-86772044D01*
X147604151Y-86771012D01*
X147606839Y-86770822D01*
X147620571Y-86765567D01*
X147849142Y-86651282D01*
X147855441Y-86647317D01*
X147857269Y-86646560D01*
X147859325Y-86644871D01*
X147861585Y-86643450D01*
X147862884Y-86641951D01*
X147868634Y-86637233D01*
X147982920Y-86522947D01*
X147987640Y-86517196D01*
X147989137Y-86515898D01*
X147990556Y-86513643D01*
X147992248Y-86511582D01*
X147993006Y-86509749D01*
X147996969Y-86503455D01*
X148111255Y-86274883D01*
X148116510Y-86261152D01*
X148116701Y-86258462D01*
X148117732Y-86255974D01*
X148119173Y-86241342D01*
X148119173Y-85669914D01*
X148883458Y-85669914D01*
X148883458Y-86469914D01*
X148884899Y-86484545D01*
X148896098Y-86511582D01*
X148905425Y-86522947D01*
X149019711Y-86637233D01*
X149031076Y-86646561D01*
X149033568Y-86647593D01*
X149035602Y-86649357D01*
X149049027Y-86655351D01*
X149391884Y-86769636D01*
X149399137Y-86771285D01*
X149400969Y-86772044D01*
X149403623Y-86772305D01*
X149406221Y-86772896D01*
X149408195Y-86772755D01*
X149415601Y-86773485D01*
X149644173Y-86773485D01*
X149651578Y-86772755D01*
X149653553Y-86772896D01*
X149656150Y-86772305D01*
X149658805Y-86772044D01*
X149660636Y-86771285D01*
X149667890Y-86769636D01*
X150010747Y-86655351D01*
X150024173Y-86649357D01*
X150026209Y-86647590D01*
X150028698Y-86646560D01*
X150040063Y-86637233D01*
X150268634Y-86408661D01*
X150273354Y-86402908D01*
X150274850Y-86401612D01*
X150276268Y-86399357D01*
X150277962Y-86397295D01*
X150278720Y-86395463D01*
X150282683Y-86389169D01*
X150396969Y-86160598D01*
X150397378Y-86159528D01*
X150397701Y-86159093D01*
X150399893Y-86152956D01*
X150402224Y-86146867D01*
X150402262Y-86146326D01*
X150402648Y-86145247D01*
X150516934Y-85688104D01*
X150517309Y-85685567D01*
X150517732Y-85684546D01*
X150518274Y-85679033D01*
X150519084Y-85673560D01*
X150518921Y-85672467D01*
X150519173Y-85669914D01*
X150519173Y-85327057D01*
X150518921Y-85324503D01*
X150519084Y-85323411D01*
X150518274Y-85317937D01*
X150517732Y-85312425D01*
X150517309Y-85311403D01*
X150516934Y-85308867D01*
X150402648Y-84851724D01*
X150402262Y-84850644D01*
X150402224Y-84850104D01*
X150399893Y-84844014D01*
X150397701Y-84837878D01*
X150397378Y-84837442D01*
X150396969Y-84836373D01*
X150282683Y-84607801D01*
X150278718Y-84601501D01*
X150277961Y-84599674D01*
X150276272Y-84597617D01*
X150274851Y-84595358D01*
X150273352Y-84594058D01*
X150268634Y-84588309D01*
X150040063Y-84359738D01*
X150028698Y-84350411D01*
X150026207Y-84349379D01*
X150024172Y-84347614D01*
X150010747Y-84341620D01*
X149667890Y-84227334D01*
X149660636Y-84225684D01*
X149658805Y-84224926D01*
X149656150Y-84224664D01*
X149653553Y-84224074D01*
X149651578Y-84224214D01*
X149644173Y-84223485D01*
X149301316Y-84223485D01*
X149286684Y-84224926D01*
X149284195Y-84225956D01*
X149281506Y-84226148D01*
X149267775Y-84231403D01*
X149039203Y-84345689D01*
X149026760Y-84353521D01*
X149007587Y-84375629D01*
X148998333Y-84403390D01*
X149000407Y-84432580D01*
X149013494Y-84458755D01*
X149035602Y-84477928D01*
X149063363Y-84487182D01*
X149092553Y-84485108D01*
X149106285Y-84479853D01*
X149319021Y-84373485D01*
X149632003Y-84373485D01*
X149946515Y-84478322D01*
X150153962Y-84685769D01*
X150259122Y-84896090D01*
X150369173Y-85336291D01*
X150369173Y-85660679D01*
X150259122Y-86100880D01*
X150153962Y-86311201D01*
X149946515Y-86518647D01*
X149632003Y-86623485D01*
X149427771Y-86623485D01*
X149113257Y-86518647D01*
X149033458Y-86438848D01*
X149033458Y-85744914D01*
X149415601Y-85744914D01*
X149430233Y-85743473D01*
X149457269Y-85732274D01*
X149477961Y-85711582D01*
X149489160Y-85684546D01*
X149489160Y-85655282D01*
X149477961Y-85628246D01*
X149457269Y-85607554D01*
X149430233Y-85596355D01*
X149415601Y-85594914D01*
X148958458Y-85594914D01*
X148943826Y-85596355D01*
X148916790Y-85607554D01*
X148896098Y-85628246D01*
X148884899Y-85655282D01*
X148883458Y-85669914D01*
X148119173Y-85669914D01*
X148119173Y-85555628D01*
X148117732Y-85540996D01*
X148116701Y-85538507D01*
X148116510Y-85535818D01*
X148111255Y-85522087D01*
X147996969Y-85293516D01*
X147993007Y-85287223D01*
X147992248Y-85285389D01*
X147990552Y-85283323D01*
X147989136Y-85281073D01*
X147987642Y-85279777D01*
X147982920Y-85274024D01*
X147868634Y-85159738D01*
X147862884Y-85155019D01*
X147861585Y-85153521D01*
X147859325Y-85152099D01*
X147857269Y-85150411D01*
X147855441Y-85149653D01*
X147849142Y-85145689D01*
X147620571Y-85031403D01*
X147606839Y-85026148D01*
X147604151Y-85025957D01*
X147601662Y-85024926D01*
X147587030Y-85023485D01*
X147244173Y-85023485D01*
X147229541Y-85024926D01*
X147227052Y-85025956D01*
X147224363Y-85026148D01*
X147210632Y-85031403D01*
X146982060Y-85145689D01*
X146975760Y-85149653D01*
X146973933Y-85150411D01*
X146971876Y-85152099D01*
X146969617Y-85153521D01*
X146968317Y-85155019D01*
X146962568Y-85159738D01*
X146848283Y-85274024D01*
X146843564Y-85279773D01*
X146842066Y-85281073D01*
X146840644Y-85283331D01*
X146838955Y-85285390D01*
X146838197Y-85287219D01*
X146834234Y-85293516D01*
X146719948Y-85522087D01*
X146714693Y-85535819D01*
X146714502Y-85538506D01*
X146713471Y-85540996D01*
X146712030Y-85555628D01*
X145947744Y-85555628D01*
X145946303Y-85540996D01*
X145945272Y-85538507D01*
X145945081Y-85535818D01*
X145939826Y-85522087D01*
X145825540Y-85293516D01*
X145821578Y-85287223D01*
X145820819Y-85285389D01*
X145819123Y-85283323D01*
X145817707Y-85281073D01*
X145816213Y-85279777D01*
X145811491Y-85274024D01*
X145697205Y-85159738D01*
X145691455Y-85155019D01*
X145690156Y-85153521D01*
X145687896Y-85152099D01*
X145685840Y-85150411D01*
X145684012Y-85149653D01*
X145677713Y-85145689D01*
X145449142Y-85031403D01*
X145435410Y-85026148D01*
X145432722Y-85025957D01*
X145430233Y-85024926D01*
X145415601Y-85023485D01*
X144958458Y-85023485D01*
X144943826Y-85024926D01*
X144941337Y-85025956D01*
X144938648Y-85026148D01*
X144924917Y-85031403D01*
X144804887Y-85091418D01*
X144804887Y-84298485D01*
X144803446Y-84283853D01*
X144792247Y-84256817D01*
X144771555Y-84236125D01*
X144744519Y-84224926D01*
X144715255Y-84224926D01*
X144688219Y-84236125D01*
X144667527Y-84256817D01*
X144656328Y-84283853D01*
X144654887Y-84298485D01*
X134404886Y-84298485D01*
X134403445Y-84283853D01*
X134392246Y-84256817D01*
X134371554Y-84236125D01*
X134344518Y-84224926D01*
X134315254Y-84224926D01*
X134288218Y-84236125D01*
X134267526Y-84256817D01*
X134256327Y-84283853D01*
X134254886Y-84298485D01*
X133988219Y-84298485D01*
X133988219Y-83956818D01*
X150785840Y-83956818D01*
X150785840Y-87838711D01*
G37*
M02*
