%TF.GenerationSoftware,KiCad,Pcbnew,10.0.1*%
%TF.CreationDate,2026-04-23T19:48:55+05:30*%
%TF.ProjectId,FC,46432e6b-6963-4616-945f-706362585858,rev?*%
%TF.SameCoordinates,Original*%
%TF.FileFunction,Copper,L2,Bot*%
%TF.FilePolarity,Positive*%
%FSLAX46Y46*%
G04 Gerber Fmt 4.6, Leading zero omitted, Abs format (unit mm)*
G04 Created by KiCad (PCBNEW 10.0.1) date 2026-04-23 19:48:55*
%MOMM*%
%LPD*%
G01*
G04 APERTURE LIST*
%TA.AperFunction,ComponentPad*%
%ADD10C,1.700000*%
%TD*%
%TA.AperFunction,ComponentPad*%
%ADD11R,1.700000X1.700000*%
%TD*%
%TA.AperFunction,ViaPad*%
%ADD12C,0.600000*%
%TD*%
%TA.AperFunction,Conductor*%
%ADD13C,0.200000*%
%TD*%
G04 APERTURE END LIST*
D10*
%TO.P,J1,8,Pin_8_8*%
%TO.N,unconnected-(J1-Pin_8-Pad8)*%
X159275000Y-82915000D03*
%TO.P,J1,7,Pin_7_7*%
%TO.N,Net-(J1-Pin_7)*%
X161815000Y-82915000D03*
%TO.P,J1,6,Pin_6_6*%
%TO.N,Net-(J1-Pin_6)*%
X159275000Y-80375000D03*
%TO.P,J1,5,Pin_5_5*%
%TO.N,Net-(J1-Pin_5)*%
X161815000Y-80375000D03*
%TO.P,J1,4,Pin_4_4*%
%TO.N,Net-(J1-Pin_4)*%
X159275000Y-77835000D03*
%TO.P,J1,3,Pin_3_3*%
%TO.N,Net-(J1-Pin_3)*%
X161815000Y-77835000D03*
%TO.P,J1,2,Pin_2_2*%
%TO.N,Net-(J1-Pin_1)*%
X159275000Y-75295000D03*
D11*
%TO.P,J1,1,Pin_1_1*%
X161815000Y-75295000D03*
%TD*%
D10*
%TO.P,J2,2,Pin_2_2*%
%TO.N,Net-(J1-Pin_1)*%
X160815000Y-101205000D03*
D11*
%TO.P,J2,1,Pin_1_1*%
%TO.N,Net-(J2-Pin_1)*%
X160815000Y-98665000D03*
%TD*%
D10*
%TO.P,J3,3,Pin_3_3*%
%TO.N,Net-(J1-Pin_1)*%
X133295000Y-104345000D03*
%TO.P,J3,2,Pin_2_2*%
%TO.N,Net-(J3-Pin_2)*%
X133295000Y-101805000D03*
D11*
%TO.P,J3,1,Pin_1_1*%
%TO.N,Net-(J3-Pin_1)*%
X133295000Y-99265000D03*
%TD*%
D10*
%TO.P,J4,3,Pin_3_3*%
%TO.N,Net-(J1-Pin_1)*%
X137885000Y-104345000D03*
%TO.P,J4,2,Pin_2_2*%
%TO.N,Net-(J3-Pin_2)*%
X137885000Y-101805000D03*
D11*
%TO.P,J4,1,Pin_1_1*%
%TO.N,Net-(J4-Pin_1)*%
X137885000Y-99265000D03*
%TD*%
D10*
%TO.P,J5,3,Pin_3_3*%
%TO.N,Net-(J1-Pin_1)*%
X142475000Y-104345000D03*
%TO.P,J5,2,Pin_2_2*%
%TO.N,Net-(J3-Pin_2)*%
X142475000Y-101805000D03*
D11*
%TO.P,J5,1,Pin_1_1*%
%TO.N,Net-(J5-Pin_1)*%
X142475000Y-99265000D03*
%TD*%
D10*
%TO.P,J6,3,Pin_3_3*%
%TO.N,Net-(J1-Pin_1)*%
X147065000Y-104345000D03*
%TO.P,J6,2,Pin_2_2*%
%TO.N,Net-(J3-Pin_2)*%
X147065000Y-101805000D03*
D11*
%TO.P,J6,1,Pin_1_1*%
%TO.N,Net-(J6-Pin_1)*%
X147065000Y-99265000D03*
%TD*%
D12*
%TO.N,Net-(J3-Pin_2)*%
X157500000Y-86500000D03*
%TO.N,Net-(U2-VDD)*%
X152000000Y-104595000D03*
%TO.N,Net-(J1-Pin_1)*%
X155671765Y-93671765D03*
%TO.N,Net-(U2-VDD)*%
X152000000Y-106000000D03*
%TO.N,Net-(J1-Pin_1)*%
X156125089Y-75776559D03*
X157420000Y-102000000D03*
X153333972Y-76085000D03*
%TO.N,Net-(U2-VDD)*%
X153545000Y-104195000D03*
%TO.N,Net-(J1-Pin_1)*%
X158500000Y-98500000D03*
%TO.N,Net-(U2-VDD)*%
X149500000Y-101015000D03*
%TO.N,Net-(J1-Pin_7)*%
X163687500Y-83500000D03*
%TO.N,Net-(U2-VDD)*%
X154599265Y-102400735D03*
X158500000Y-102000000D03*
%TO.N,Net-(J1-Pin_5)*%
X164287500Y-81000000D03*
%TO.N,Net-(U2-VDD)*%
X149825735Y-99815000D03*
%TO.N,Net-(J1-Pin_3)*%
X135735000Y-95000000D03*
%TO.N,Net-(J1-Pin_1)*%
X154423235Y-93223235D03*
%TO.N,Net-(J1-Pin_4)*%
X157000000Y-76000000D03*
X157000000Y-72080000D03*
%TD*%
%TO.N,Net-(J3-Pin_2)*%
D13*
X148215000Y-95785000D02*
X157500000Y-86500000D01*
X148215000Y-100655000D02*
X148215000Y-95785000D01*
X147065000Y-101805000D02*
X148215000Y-100655000D01*
%TO.N,Net-(J1-Pin_3)*%
X160665000Y-76685000D02*
X161815000Y-77835000D01*
X149315000Y-76685000D02*
X160665000Y-76685000D01*
%TO.N,Net-(J1-Pin_1)*%
X158215000Y-101205000D02*
X157420000Y-102000000D01*
X160815000Y-101205000D02*
X159000000Y-101205000D01*
X158500000Y-101205000D02*
X158500000Y-98500000D01*
X158500000Y-101205000D02*
X158215000Y-101205000D01*
%TO.N,Net-(J1-Pin_3)*%
X139000000Y-87000000D02*
X139000000Y-94500000D01*
X149315000Y-76685000D02*
X139000000Y-87000000D01*
%TO.N,Net-(J1-Pin_1)*%
X159000000Y-101205000D02*
X158500000Y-101205000D01*
%TO.N,Net-(U2-VDD)*%
X154599265Y-102400735D02*
X153545000Y-103455000D01*
X153545000Y-103455000D02*
X153545000Y-104195000D01*
X154798530Y-102600000D02*
X157900000Y-102600000D01*
X154599265Y-102400735D02*
X154798530Y-102600000D01*
X157900000Y-102600000D02*
X158500000Y-102000000D01*
X149825735Y-100689265D02*
X149500000Y-101015000D01*
X149825735Y-99815000D02*
X149825735Y-100689265D01*
%TO.N,Net-(J1-Pin_7)*%
X163687500Y-83500000D02*
X162400000Y-83500000D01*
X162400000Y-83500000D02*
X161815000Y-82915000D01*
%TO.N,Net-(J1-Pin_5)*%
X164000000Y-81000000D02*
X163375000Y-80375000D01*
X163375000Y-80375000D02*
X161815000Y-80375000D01*
X164287500Y-81000000D02*
X164000000Y-81000000D01*
%TO.N,Net-(J1-Pin_4)*%
X157500000Y-72580000D02*
X157500000Y-75500000D01*
X157500000Y-75500000D02*
X157000000Y-76000000D01*
%TO.N,Net-(J1-Pin_1)*%
X153333972Y-76085000D02*
X153642413Y-75776559D01*
X155671765Y-93671765D02*
X154871765Y-93671765D01*
X154871765Y-93671765D02*
X154423235Y-93223235D01*
%TO.N,Net-(J3-Pin_2)*%
X133295000Y-101805000D02*
X147065000Y-101805000D01*
%TO.N,Net-(J2-Pin_1)*%
X160835000Y-98665000D02*
X161000000Y-98500000D01*
%TO.N,Net-(J1-Pin_1)*%
X153642413Y-75776559D02*
X156125089Y-75776559D01*
%TO.N,Net-(J2-Pin_1)*%
X160815000Y-98665000D02*
X160835000Y-98665000D01*
%TO.N,Net-(U2-VDD)*%
X152000000Y-104595000D02*
X152000000Y-106000000D01*
%TO.N,Net-(J1-Pin_1)*%
X147065000Y-104345000D02*
X133295000Y-104345000D01*
%TO.N,Net-(J1-Pin_3)*%
X138500000Y-95000000D02*
X139000000Y-94500000D01*
X135735000Y-95000000D02*
X138500000Y-95000000D01*
%TO.N,Net-(J1-Pin_4)*%
X157000000Y-72080000D02*
X157500000Y-72580000D01*
%TD*%
M02*
