M48
; DRILL file KiCad 10.0.1 date 2026-04-23T19:49:02
; FORMAT={-:-/ absolute / metric / decimal}
; #@! TF.CreationDate,2026-04-23T19:49:02+05:30
; #@! TF.GenerationSoftware,Kicad,Pcbnew,10.0.1
; #@! TF.FileFunction,Plated,1,2,PTH
FMAT,2
METRIC
; #@! TA.AperFunction,Plated,PTH,ViaDrill
T1C0.300
; #@! TA.AperFunction,Plated,PTH,ComponentDrill
T2C1.000
%
G90
G05
T1
X135.735Y-95.0
X149.5Y-101.015
X149.826Y-99.815
X152.0Y-104.595
X152.0Y-106.0
X153.334Y-76.085
X153.545Y-104.195
X154.423Y-93.223
X154.599Y-102.401
X155.672Y-93.672
X156.125Y-75.777
X157.0Y-72.08
X157.0Y-76.0
X157.42Y-102.0
X157.5Y-86.5
X158.5Y-98.5
X158.5Y-102.0
X163.688Y-83.5
X164.287Y-81.0
T2
X133.295Y-99.265
X133.295Y-101.805
X133.295Y-104.345
X137.885Y-99.265
X137.885Y-101.805
X137.885Y-104.345
X142.475Y-99.265
X142.475Y-101.805
X142.475Y-104.345
X147.065Y-99.265
X147.065Y-101.805
X147.065Y-104.345
X159.275Y-75.295
X159.275Y-77.835
X159.275Y-80.375
X159.275Y-82.915
X160.815Y-98.665
X160.815Y-101.205
X161.815Y-75.295
X161.815Y-77.835
X161.815Y-80.375
X161.815Y-82.915
M30
